<?xml version="1.0" standalone="no"?>
<!DOCTYPE svg PUBLIC "-//W3C//DTD SVG 20010904//EN"
 "http://www.w3.org/TR/2001/REC-SVG-20010904/DTD/svg10.dtd">
<svg version="1.0" xmlns="http://www.w3.org/2000/svg"
 width="569.000000pt" height="531.000000pt" viewBox="0 0 569.000000 531.000000"
 preserveAspectRatio="xMidYMid meet">
<g transform="translate(0.000000,531.000000) scale(0.100000,-0.100000)"
fill="#000000" stroke="none">
<path d="M2715 4389 c-767 -48 -1414 -631 -1556 -1404 -29 -156 -31 -411 -5
-560 39 -220 113 -424 216 -600 172 -292 429 -531 725 -676 395 -192 870 -225
1287 -88 572 189 1009 681 1138 1284 34 155 39 459 11 622 -64 380 -268 750
-550 997 -276 244 -645 403 -976 422 -49 2 -108 6 -130 8 -22 1 -94 -1 -160
-5z m375 -49 c25 -6 81 -16 125 -25 44 -8 107 -24 139 -36 33 -11 68 -21 77
-22 10 -1 16 -4 13 -8 -2 -4 8 -10 23 -14 39 -9 234 -106 257 -127 11 -10 24
-18 30 -18 5 0 26 -15 45 -32 18 -18 31 -26 27 -18 -4 8 1 5 10 -7 9 -13 22
-23 29 -23 8 0 15 -3 17 -8 2 -4 30 -30 62 -57 33 -28 76 -68 95 -90 20 -22
55 -59 77 -82 23 -24 40 -43 37 -43 -4 0 44 -68 57 -80 15 -15 70 -106 111
-185 131 -252 190 -488 191 -761 0 -125 -3 -171 -17 -274 -24 -184 -120 -440
-238 -635 -7 -11 -14 -22 -18 -25 -3 -3 -16 -23 -29 -45 -13 -22 -29 -44 -35
-50 -7 -5 -39 -44 -73 -85 -53 -66 -116 -127 -155 -152 -7 -4 -7 -8 -2 -8 6 0
-5 -9 -22 -20 -18 -11 -33 -24 -33 -30 0 -5 -5 -10 -10 -10 -6 0 -38 -21 -73
-48 -34 -26 -75 -54 -92 -63 -16 -9 -56 -31 -88 -48 -122 -68 -334 -145 -427
-157 -19 -3 -51 -9 -71 -14 -20 -6 -69 -12 -110 -15 -41 -3 -98 -8 -127 -10
-30 -3 -104 0 -165 6 -62 6 -123 12 -137 13 -14 1 -29 4 -35 8 -5 3 -30 9 -55
13 -53 8 -230 59 -258 74 -11 6 -22 7 -26 4 -3 -3 -6 -2 -6 4 0 6 -12 14 -27
19 -16 4 -30 8 -33 9 -18 5 -128 63 -143 75 -9 8 -21 15 -25 15 -28 1 -203
141 -322 258 -91 90 -205 234 -249 316 -8 14 -18 29 -23 32 -5 3 -9 9 -9 12 1
11 -40 101 -47 107 -7 5 -60 135 -63 152 0 4 -7 29 -16 55 -20 65 -42 147 -48
180 -3 16 -7 39 -10 53 -12 55 -22 251 -18 355 4 124 22 229 59 360 14 50 26
96 27 103 0 6 4 12 7 12 7 0 24 58 21 73 0 4 3 7 9 7 5 0 10 11 10 25 0 14 4
25 9 25 5 0 13 9 16 21 8 25 75 144 121 215 58 90 167 220 233 279 25 22 63
58 85 80 22 22 36 33 32 25 -5 -8 1 -6 12 5 35 34 51 45 61 45 5 0 11 4 13 8
4 10 135 92 147 92 5 0 16 6 23 13 56 52 389 161 543 177 103 11 433 11 485 0z"/>
<path d="M2670 4249 c-25 -4 -67 -10 -94 -13 -59 -7 -231 -53 -268 -72 -15 -8
-35 -15 -45 -17 -24 -4 -224 -105 -244 -123 -8 -8 -19 -14 -23 -14 -4 0 -27
-16 -50 -35 -24 -19 -45 -33 -48 -30 -6 6 -224 -208 -267 -262 -18 -23 -43
-54 -56 -69 -13 -15 -22 -31 -19 -36 3 -4 2 -8 -3 -8 -8 0 -72 -97 -76 -115
-1 -5 -8 -18 -17 -28 -8 -10 -15 -21 -16 -25 0 -4 -8 -24 -18 -45 -9 -21 -14
-46 -11 -56 4 -13 -5 -20 -38 -29 -114 -35 -160 -149 -102 -259 25 -49 25 -49
10 -133 -19 -109 -19 -261 0 -397 17 -120 73 -333 87 -333 5 0 7 -4 4 -9 -8
-12 64 -172 84 -189 8 -8 9 -11 3 -7 -9 4 -11 1 -7 -9 3 -9 10 -16 15 -16 5 0
9 -7 9 -15 0 -8 5 -15 11 -15 5 0 8 -4 5 -8 -3 -5 4 -18 14 -30 11 -12 20 -25
20 -31 0 -5 3 -11 8 -13 4 -1 19 -21 34 -43 14 -22 34 -51 45 -64 26 -33 198
-209 188 -192 -4 8 12 -6 36 -29 100 -98 340 -233 509 -285 178 -55 203 -60
230 -45 17 9 25 8 39 -4 19 -17 68 -21 90 -7 9 6 26 3 48 -7 28 -13 39 -14 65
-4 20 7 37 8 49 2 23 -13 76 -13 84 0 4 6 26 8 56 4 35 -5 54 -3 65 7 10 8 43
15 78 16 53 1 111 8 111 13 0 1 9 3 20 5 10 2 28 8 40 14 11 5 38 15 60 22 54
16 209 89 213 100 2 5 8 7 13 3 5 -3 9 0 9 5 0 6 3 10 8 9 8 -3 95 53 100 65
2 4 10 7 17 7 7 0 15 3 17 8 2 4 34 32 73 62 38 30 80 66 93 80 12 14 48 53
80 86 62 67 163 202 183 247 7 15 17 27 22 27 6 0 7 3 4 6 -3 4 -1 16 5 28 7
11 11 24 10 29 -1 4 2 7 7 7 14 0 64 138 58 160 -4 15 3 22 32 31 38 12 111
75 111 95 0 7 4 14 9 16 25 9 5 110 -31 158 -18 24 -19 34 -10 101 5 41 10 97
11 124 2 47 -13 226 -23 285 -3 14 -7 43 -11 65 -7 51 -76 259 -87 263 -4 2
-6 8 -2 13 3 5 1 9 -4 9 -5 0 -9 6 -9 13 0 19 -44 110 -57 119 -7 5 -7 8 -1 8
6 0 5 3 -1 8 -6 4 -26 34 -44 67 -18 33 -36 62 -40 65 -3 3 -21 27 -40 54 -18
27 -51 67 -72 89 -21 22 -38 43 -38 48 0 4 -5 11 -12 15 -7 4 -8 3 -4 -5 4 -6
-22 17 -58 51 -36 35 -77 73 -93 86 -15 12 -41 33 -57 47 -16 14 -35 25 -42
25 -8 0 -14 3 -14 8 0 4 -8 12 -19 17 -10 6 -38 21 -62 35 -24 13 -46 24 -49
25 -3 0 -12 5 -20 10 -41 27 -172 82 -215 91 -11 2 -29 8 -40 13 -30 15 -141
41 -225 53 -94 13 -350 17 -410 7z m338 -39 c517 -56 976 -373 1206 -835 127
-255 181 -530 157 -798 l-12 -128 25 -30 c92 -109 -38 -269 -165 -203 -41 21
-53 14 -68 -36 -21 -72 -118 -252 -181 -335 -170 -227 -394 -392 -665 -490
-80 -29 -90 -36 -93 -59 -5 -40 19 -42 120 -6 215 75 383 182 553 354 135 136
209 239 286 400 46 96 53 106 72 100 12 -4 24 -8 26 -10 9 -8 -125 -260 -180
-338 -218 -305 -562 -532 -926 -611 l-33 -7 0 129 0 128 110 110 c104 104 110
108 128 92 52 -48 152 3 152 78 0 51 -44 95 -95 95 -44 0 -95 -45 -95 -83 0
-14 -4 -27 -10 -29 -5 -1 -50 -43 -100 -92 -50 -49 -92 -87 -93 -85 -1 2 0 45
3 96 l5 92 104 106 104 105 106 0 106 0 96 89 c71 66 99 87 110 80 19 -12 66
-11 91 2 26 14 48 67 41 102 -3 15 -19 39 -36 53 -25 21 -38 25 -66 20 -49 -7
-95 -58 -88 -96 5 -24 -4 -36 -81 -107 l-88 -80 -114 -5 -114 -5 -117 -124
-118 -124 -1 -277 c0 -271 -1 -278 -20 -279 -11 -1 -24 -2 -29 -3 -5 -1 -12
133 -15 313 l-5 314 102 106 c56 58 120 127 142 151 l40 46 125 23 c74 13 133
30 144 39 10 10 57 73 104 142 47 69 99 142 115 163 27 35 29 43 24 95 -7 76
-37 236 -47 252 -7 11 -38 8 -165 -16 l-157 -29 -129 -174 c-87 -117 -129
-183 -129 -200 0 -15 11 -82 25 -150 14 -68 25 -126 25 -128 0 -2 -61 -66
-135 -143 l-135 -140 -2 -336 -3 -337 -32 -2 -33 -3 0 381 0 380 70 73 c38 39
70 78 70 85 0 8 15 21 33 29 73 34 76 127 5 165 l-38 20 0 81 0 80 120 118
121 117 -1 241 -1 241 32 33 c26 27 37 31 63 27 40 -6 91 32 99 74 7 35 -15
88 -41 102 -37 20 -91 13 -119 -15 -22 -22 -25 -32 -21 -74 5 -46 3 -51 -34
-86 l-38 -38 0 -241 0 -240 -120 -120 -120 -120 0 -99 c0 -77 -4 -103 -16
-117 -9 -10 -18 -35 -21 -56 -4 -32 0 -45 20 -69 l26 -31 -44 -49 -44 -49 -1
314 0 314 120 114 120 115 0 278 0 277 -126 137 c-70 75 -132 136 -138 136
-12 0 -218 -206 -254 -254 -21 -28 -22 -38 -22 -295 l0 -266 120 -120 120
-120 2 -312 3 -312 -33 32 c-51 49 -56 63 -33 94 27 33 27 83 1 116 -18 22
-20 38 -18 121 l3 96 -122 122 -123 123 0 367 0 366 30 30 c39 40 41 88 4 131
-48 57 -141 32 -159 -42 -8 -31 19 -91 46 -103 19 -9 19 -21 20 -389 l1 -380
124 -125 124 -126 0 -77 c0 -63 -3 -77 -16 -77 -8 0 -29 -13 -45 -29 -52 -53
-32 -140 36 -157 14 -3 25 -13 25 -21 0 -8 29 -47 65 -86 l66 -72 0 -380 0
-380 -31 0 -30 0 0 333 0 333 -141 146 c-126 130 -140 148 -134 172 4 14 17
79 29 145 l23 118 -56 77 c-31 42 -90 123 -130 179 -41 57 -84 107 -95 111
-40 14 -284 54 -298 48 -14 -5 -58 -214 -58 -277 0 -24 28 -73 116 -203 64
-95 120 -176 124 -180 4 -4 61 -19 127 -32 66 -14 129 -28 140 -32 10 -5 81
-74 156 -155 l137 -147 0 -316 0 -317 -22 6 c-13 3 -27 6 -33 6 -6 0 -10 97
-9 273 l1 272 -131 132 -131 133 -105 0 -105 1 -88 85 c-68 65 -87 89 -82 104
14 44 -42 100 -101 100 -39 0 -84 -51 -84 -95 0 -66 78 -118 130 -85 11 7 36
-12 106 -80 l91 -90 109 0 109 0 112 -112 113 -113 0 -143 0 -144 -68 61 c-58
51 -69 65 -69 92 0 42 -50 89 -94 89 -46 0 -89 -47 -89 -98 0 -67 73 -112 131
-82 17 9 31 0 104 -67 l85 -78 0 -72 c0 -52 -4 -73 -12 -73 -7 0 -49 9 -93 19
-421 101 -807 410 -1001 801 -56 113 -118 298 -141 420 -22 120 -25 403 -4
503 13 66 13 69 -9 92 -33 36 -38 118 -10 163 21 34 72 62 113 62 12 0 40 -9
62 -20 22 -11 41 -20 42 -20 2 0 21 39 44 86 195 411 577 704 1029 789 128 25
360 25 490 0 594 -111 1042 -563 1145 -1154 17 -92 21 -288 9 -389 l-7 -63 34
3 c31 3 34 6 42 48 4 25 6 124 3 220 -3 139 -10 197 -29 280 -129 546 -534
957 -1083 1100 -152 39 -330 54 -484 40 -514 -47 -936 -329 -1189 -792 -30
-54 -49 -78 -61 -78 -10 0 -21 4 -24 9 -8 12 79 171 144 266 72 104 233 271
338 350 307 230 694 336 1080 295z m-24 -738 l76 -83 0 -252 0 -252 -90 -90
-90 -90 0 127 0 126 60 52 60 52 0 119 0 119 -25 0 c-14 0 -25 -6 -26 -12 0
-7 0 -53 1 -101 1 -87 1 -88 -32 -119 l-33 -31 -3 207 c-2 172 -5 208 -17 213
-9 3 -22 -1 -31 -8 -13 -11 -15 -29 -12 -96 2 -46 3 -83 2 -83 -1 0 -25 23
-52 52 -34 36 -54 49 -66 45 -30 -12 -17 -41 48 -107 61 -62 64 -67 68 -122 5
-62 -1 -71 -24 -35 -9 12 -29 37 -46 55 -26 28 -34 32 -52 22 -24 -13 -26 -44
-4 -62 9 -7 43 -37 75 -67 56 -52 59 -56 59 -103 0 -26 -3 -48 -7 -48 -3 0
-28 24 -54 53 -40 44 -50 50 -65 41 -10 -6 -19 -15 -21 -21 -2 -5 27 -41 65
-80 65 -65 69 -73 75 -126 4 -31 4 -57 -1 -57 -4 0 -47 39 -95 88 l-87 87 0
249 0 248 107 114 107 115 26 -28 c15 -15 62 -65 104 -111z m-490 92 c20 -19
20 -38 2 -54 -23 -19 -61 -8 -64 18 -7 44 32 67 62 36z m896 -219 c26 -32 -13
-81 -47 -59 -35 22 -23 74 17 74 10 0 23 -7 30 -15z m-1374 -591 c-3 -22 -17
-21 -33 2 -13 20 -12 21 11 17 13 -3 23 -11 22 -19z m125 -20 c51 -10 94 -23
103 -33 42 -48 226 -308 226 -321 0 -28 -33 -180 -39 -180 -3 0 -16 15 -28 33
-12 17 -44 64 -71 104 l-50 71 18 65 c19 68 14 87 -22 87 -11 0 -20 -10 -24
-27 -3 -16 -9 -37 -14 -48 -7 -19 -8 -18 -20 7 -10 21 -10 40 -1 84 15 75 14
91 -4 98 -22 8 -45 -22 -45 -60 0 -19 -4 -34 -8 -34 -5 0 -34 38 -66 85 -31
47 -53 85 -50 85 3 0 46 -7 95 -16z m1519 11 c0 -3 -28 -44 -62 -91 l-63 -86
-9 51 c-8 44 -12 51 -32 51 -30 0 -32 -12 -17 -89 9 -49 10 -73 2 -93 -13 -32
-29 -28 -29 8 0 52 -33 81 -58 51 -8 -9 -7 -31 5 -78 l15 -65 -68 -102 c-38
-55 -72 -101 -75 -102 -4 0 -15 42 -25 94 l-17 95 37 53 c20 29 74 102 119
163 l82 109 85 17 c99 19 110 21 110 14z m-1571 -171 c89 -124 97 -139 78
-142 -14 -3 -29 6 -44 25 -13 15 -28 34 -34 41 -14 17 -43 11 -47 -9 -2 -9 12
-36 30 -60 32 -41 38 -45 102 -54 54 -8 71 -15 86 -35 l18 -25 -86 3 c-48 2
-92 9 -99 15 -32 32 -133 194 -133 213 0 34 22 175 26 171 2 -2 49 -66 103
-143z m1655 -15 c4 -21 -11 -49 -71 -133 -72 -101 -77 -106 -112 -106 -20 0
-60 -3 -90 -7 l-55 -6 22 30 c19 27 28 31 84 35 55 4 64 8 90 39 32 38 45 76
31 90 -15 15 -36 2 -60 -35 -19 -30 -73 -56 -73 -35 0 4 22 36 48 71 26 35 73
98 103 142 l54 78 12 -68 c7 -38 14 -81 17 -95z m-879 143 c19 -13 15 -38 -5
-39 -11 -1 -20 3 -20 8 0 6 -5 7 -11 3 -8 -4 -8 0 0 15 12 22 20 25 36 13z
m-612 -269 c-3 -7 -10 -13 -17 -13 -6 0 -4 -5 4 -10 8 -5 11 -10 5 -10 -5 0
-16 4 -24 9 -11 7 -12 13 -3 24 15 17 42 18 35 0z m31 -173 c25 -1 37 -10 64
-46 19 -25 32 -47 30 -49 -2 -2 -89 13 -174 30 -12 3 -34 21 -49 41 l-28 37
63 -6 c34 -4 77 -7 94 -7z m1276 3 c-1 -5 -11 -21 -24 -36 -20 -24 -38 -32
-117 -48 -51 -10 -95 -17 -97 -15 -2 2 9 22 25 44 27 38 31 41 93 47 36 4 70
8 75 10 19 6 45 5 45 -2z m-839 -59 c17 -21 0 -49 -31 -49 -31 0 -48 28 -31
49 8 9 21 16 31 16 10 0 23 -7 31 -16z m327 -13 c5 -32 -23 -54 -49 -40 -19
10 -26 49 -12 63 4 4 19 6 33 4 18 -2 26 -10 28 -27z m-1112 -5 c8 -32 -2 -46
-31 -46 -29 0 -47 27 -34 52 15 28 57 23 65 -6z m1892 12 c18 -18 14 -46 -7
-58 -25 -13 -48 -4 -56 21 -12 38 35 65 63 37z m-1390 -51 c4 -19 -6 -21 -27
-8 -16 10 -5 34 12 28 7 -2 13 -11 15 -20z m436 -162 c18 -13 15 -20 -6 -16
-5 0 -7 -3 -5 -8 2 -9 -3 -11 -23 -11 -11 0 -14 33 -3 43 9 10 15 8 37 -8z
m576 -245 c17 -17 18 -24 10 -41 -17 -30 -39 -34 -62 -11 -20 20 -20 22 -4 46
20 31 30 32 56 6z m-1076 -156 c29 -28 13 -68 -24 -62 -36 5 -48 33 -26 57 23
25 30 26 50 5z"/>
<path d="M2811 3851 c-16 -29 -14 -46 9 -66 41 -37 102 17 73 64 -16 25 -69
26 -82 2z"/>
<path d="M3011 3774 c-29 -21 -27 -60 4 -80 23 -15 27 -15 50 0 15 10 25 26
25 40 0 40 -46 63 -79 40z"/>
<path d="M2622 3768 c-18 -18 -15 -52 6 -71 25 -22 45 -21 67 3 27 30 10 74
-30 78 -17 2 -36 -3 -43 -10z"/>
<path d="M3698 3699 c-23 -13 -23 -51 0 -72 24 -22 35 -21 55 1 22 24 21 38
-3 62 -23 23 -28 24 -52 9z"/>
<path d="M3146 3584 c-19 -18 -21 -55 -4 -72 7 -7 24 -12 38 -12 49 0 68 51
32 83 -23 21 -46 22 -66 1z"/>
<path d="M3807 3582 c-10 -10 -17 -21 -17 -23 0 -3 34 -50 76 -105 171 -225
257 -485 253 -767 -2 -132 3 -152 37 -145 23 4 31 39 33 143 3 233 -63 478
-185 687 -50 85 -158 228 -173 228 -4 0 -15 -8 -24 -18z"/>
<path d="M1386 3149 c-31 -25 -33 -57 -6 -87 33 -35 76 -28 99 15 16 31 14 41
-14 68 -29 30 -45 31 -79 4z"/>
<path d="M1536 2994 c-23 -23 -20 -51 8 -69 45 -30 91 16 61 61 -18 28 -47 31
-69 8z"/>
<path d="M1390 2946 c-5 -14 -14 -73 -21 -133 -19 -178 6 -399 67 -582 146
-440 485 -787 917 -940 103 -36 123 -38 130 -12 8 33 -11 48 -95 76 -341 113
-644 378 -811 710 -118 235 -169 538 -134 785 12 80 13 106 4 112 -23 15 -48
8 -57 -16z"/>
<path d="M2290 2917 c-14 -7 -26 -23 -28 -36 -4 -26 23 -61 48 -61 9 0 25 9
34 19 38 41 -5 102 -54 78z"/>
<path d="M3351 2906 c-16 -19 -10 -66 10 -79 26 -16 68 0 75 29 12 47 -55 87
-85 50z"/>
<path d="M1509 2839 c-18 -35 -5 -342 20 -449 24 -105 63 -213 109 -305 44
-88 140 -229 186 -274 35 -34 36 -34 56 -16 11 10 20 22 20 26 0 5 -30 46 -67
92 -184 229 -264 465 -267 782 -1 156 -1 160 -23 163 -14 2 -26 -4 -34 -19z"/>
<path d="M1776 2794 c-21 -21 -20 -40 4 -64 25 -25 42 -25 63 -2 46 51 -19
115 -67 66z"/>
<path d="M3846 2788 c-21 -29 -20 -41 2 -61 37 -34 82 -15 82 33 0 51 -55 69
-84 28z"/>
<path d="M4085 2466 c-31 -47 26 -95 66 -55 23 23 23 28 3 57 -20 29 -50 28
-69 -2z"/>
<path d="M1788 2448 c-24 -20 -28 -44 -12 -67 17 -23 53 -28 72 -9 13 13 16
47 4 64 -12 19 -47 25 -64 12z"/>
<path d="M3846 2434 c-21 -21 -20 -40 4 -64 25 -25 42 -25 63 -2 46 51 -19
115 -67 66z"/>
<path d="M4235 2375 c-14 -13 -25 -31 -25 -40 0 -22 45 -65 67 -65 56 0 83 70
43 110 -27 27 -56 25 -85 -5z"/>
<path d="M2278 1839 c-26 -15 -23 -64 4 -83 12 -9 26 -16 30 -16 14 0 48 39
48 55 0 18 -35 55 -52 55 -7 0 -21 -5 -30 -11z"/>
<path d="M1935 1750 c-15 -17 -16 -24 -7 -46 10 -21 18 -25 45 -22 27 3 32 7
35 33 3 19 -2 33 -14 42 -25 18 -38 16 -59 -7z"/>
<path d="M2955 2954 c-20 -20 -16 -53 8 -68 39 -24 79 44 41 71 -23 17 -29 16
-49 -3z"/>
<path d="M2368 2429 c-33 -18 -16 -69 23 -69 29 0 44 27 31 55 -12 27 -27 30
-54 14z"/>
<path d="M3285 2424 c-19 -20 -16 -43 8 -58 34 -22 73 27 47 59 -16 19 -35 19
-55 -1z"/>
</g>
</svg>
